<svg width="1080" height="1080" viewBox="0 0 1080 1080" fill="none" xmlns="http://www.w3.org/2000/svg">
<path fill-rule="evenodd" clip-rule="evenodd" d="M-112.33 -25.3101L-375.733 53.9071L-355.621 120.781L-285.434 354.159L-284.542 353.891L-275.923 382.552L-405.577 421.544L-475.764 188.166L-542.638 208.279L-472.451 441.657L-472.38 441.894L-472.779 442.014L-452.667 508.888L-382.48 742.266L-315.605 722.154L-385.793 488.776L-256.138 449.783L-185.951 683.161L-119.077 663.049L-189.264 429.671L-189.264 429.671L-189.335 429.434L-188.936 429.314L-209.048 362.44L-279.236 129.062L-280.127 129.33L-288.747 100.669L-159.093 61.6765L-88.9053 295.054L-22.031 274.942L-92.218 41.5643L-112.33 -25.3101ZM-407.597 63.4904L-671 142.707L-650.888 209.582L-580.701 442.96L-513.826 422.848L-584.013 189.47L-454.359 150.477L-384.172 383.855L-317.298 363.743L-387.485 130.365L-387.485 130.365L-407.597 63.4904ZM311.297 -48.5375L381.485 184.84L401.597 251.715L401.197 251.835L401.268 252.071L471.455 485.449L404.581 505.561L334.393 272.183L204.739 311.176L213.359 339.836L214.249 339.568L284.437 572.946L304.549 639.82L304.148 639.941L304.219 640.176L374.406 873.554L307.532 893.666L237.345 660.288L107.691 699.281L116.311 727.944L117.202 727.676L187.389 961.054L207.501 1027.93L207.101 1028.05L207.172 1028.28L277.359 1261.66L210.485 1281.77L140.297 1048.4L10.6433 1087.39L80.8305 1320.77L13.9562 1340.88L-56.2312 1107.5L-76.3433 1040.63L-75.943 1040.51L-76.014 1040.27L-146.201 806.893L-79.3267 786.781L-9.13946 1020.16L120.515 981.166L111.895 952.503L111.004 952.771L40.8164 719.393L20.7044 652.519L21.1045 652.399L21.0336 652.163L-49.1535 418.785L17.7209 398.673L87.9081 632.051L217.562 593.058L208.943 564.398L208.052 564.666L137.865 331.288L117.753 264.413L118.153 264.293L118.082 264.058L47.8945 30.6796L114.769 10.5675L184.956 243.945L314.61 204.953L305.991 176.292L305.098 176.56L234.911 -56.818L214.799 -123.692L214.799 -123.692L478.202 -202.909L498.314 -136.035L568.501 97.343L501.627 117.455L431.44 -115.923L301.786 -76.9301L310.405 -48.2692L311.297 -48.5375ZM-86.3228 653.198L-77.7034 681.858L-207.358 720.851L-277.545 487.473L-344.419 507.585L-274.232 740.963L-274.162 741.197L-274.564 741.318L-254.452 808.193L-184.265 1041.57L-117.391 1021.46L-187.578 788.081L-57.9238 749.088L12.2635 982.466L79.1378 962.354L8.95079 728.976L8.88025 728.742L9.28317 728.621L-10.8289 661.746L-81.0163 428.368L-81.9082 428.636L-90.5276 399.976L39.1265 360.984L109.314 594.362L176.188 574.249L106.001 340.871L105.929 340.634L106.33 340.513L86.2179 273.639L16.0306 40.261L15.1381 40.5295L6.51918 11.8708L136.173 -27.122L206.36 206.256L273.235 186.144L203.048 -47.2342L182.936 -114.109L-80.4673 -34.8914L-80.4672 -34.8913L-60.3552 31.9829L9.83207 265.361L10.7245 265.092L19.3435 293.751L-110.31 332.744L-180.498 99.366L-247.372 119.478L-177.185 352.856L-177.185 352.856L-177.114 353.094L-177.514 353.214L-157.402 420.089L-87.2147 653.467L-86.3228 653.198ZM433.13 242.488L503.318 475.866L504.209 475.598L512.829 504.258L383.175 543.251L312.987 309.873L246.113 329.985L316.3 563.363L316.371 563.598L315.969 563.719L336.081 630.593L406.268 863.971L407.161 863.703L415.781 892.365L286.127 931.358L215.94 697.98L149.066 718.092L219.253 951.47L219.324 951.707L218.923 951.827L239.035 1018.7L309.223 1252.08L310.114 1251.81L318.734 1280.47L189.08 1319.46L118.893 1086.09L52.0182 1106.2L122.205 1339.58L142.317 1406.45L209.192 1386.34L338.846 1347.35L405.72 1327.23L315.421 1026.98L314.529 1027.25L305.91 998.589L435.564 959.597L505.751 1192.97L572.625 1172.86L502.438 939.484L502.367 939.248L502.768 939.127L482.656 872.253L412.468 638.875L411.575 639.143L402.955 610.481L532.609 571.488L602.797 804.866L669.671 784.754L599.484 551.376L599.413 551.141L599.815 551.021L579.703 484.146L509.516 250.768L508.624 251.036L500.005 222.376L629.659 183.383L699.847 416.761L700.902 416.444L700.197 447.909L678.441 454.452L608.254 221.074L541.379 241.187L611.566 474.565L611.637 474.799L611.237 474.919L631.349 541.794L701.536 775.171L702.427 774.904L711.047 803.565L581.393 842.558L511.205 609.18L444.331 629.292L514.518 862.67L514.589 862.907L514.19 863.027L534.302 929.901L604.489 1163.28L605.38 1163.01L614 1191.67L484.346 1230.66L414.158 997.286L347.284 1017.4L417.471 1250.78L437.583 1317.65L504.458 1297.54L634.112 1258.55L700.986 1238.43L610.687 938.181L609.795 938.449L601.176 909.789L730.831 870.796L801.018 1104.17L867.892 1084.06L797.705 850.684L797.634 850.448L798.033 850.327L777.921 783.453L707.734 550.075L706.843 550.343L698.223 521.681L827.878 482.688L898.065 716.066L964.939 695.954L894.752 462.576L894.681 462.342L895.081 462.222L874.969 395.347L804.782 161.969L803.891 162.237L795.271 133.578L924.926 94.5849L995.113 327.963L1061.99 307.851L991.8 74.4727L991.729 74.2349L992.128 74.1147L972.016 7.24047L901.829 -226.137L900.938 -225.869L892.318 -254.529L1021.97 -293.522L1092.16 -60.1443L1159.03 -80.2564L1088.85 -313.634L1068.73 -380.509L1068.73 -380.509L805.332 -301.292L805.332 -301.292L825.444 -234.417L895.631 -1.03934L896.522 -1.30745L905.142 27.3526L775.487 66.3455L705.3 -167.033L638.426 -146.92L708.613 86.4576L708.685 86.6955L708.285 86.8157L705.877 194.338L696.533 163.271L696.462 163.035L696.863 162.914L676.75 96.0399L606.563 -137.338L605.671 -137.07L597.052 -165.729L726.706 -204.722L796.893 28.6557L863.768 8.54362L793.58 -224.834L773.468 -291.709L773.468 -291.709L510.065 -212.492L510.065 -212.491L530.177 -145.617L600.364 87.7607L601.257 87.4923L609.876 116.152L480.222 155.145L410.035 -78.2331L343.16 -58.121L413.347 175.257L413.419 175.494L413.018 175.614L433.13 242.488ZM721.012 244.664L705.877 194.338L700.902 416.444L707.221 414.543L704.621 446.579L700.197 447.909L700.192 448.166L704.6 446.841L704.621 446.579L808.095 415.46L799.476 386.8L798.584 387.068L728.397 153.69L721.012 244.664ZM721.012 244.664L766.721 396.649L707.221 414.543L721.012 244.664ZM1395.31 -15.6309L1465.5 217.747L1485.61 284.621L1485.21 284.742L1485.28 284.976L1555.47 518.354L1488.6 538.466L1418.41 305.088L1288.75 344.081L1297.38 372.745L1298.27 372.477L1368.45 605.855L1388.57 672.729L1388.17 672.849L1388.24 673.086L1458.42 906.464L1391.55 926.576L1321.36 693.198L1191.71 732.191L1200.33 760.851L1201.22 760.583L1271.41 993.96L1291.52 1060.83L1224.64 1080.95L1094.99 1119.94L1028.12 1140.05L1008 1073.18L937.816 839.8L1004.69 819.687L1074.88 1053.07L1204.53 1014.07L1195.91 985.413L1195.02 985.681L1124.83 752.303L1104.72 685.429L1105.12 685.309L1105.05 685.072L1034.86 451.694L1101.74 431.582L1171.92 664.96L1301.58 625.967L1292.96 597.303L1292.07 597.571L1221.88 364.193L1201.77 297.319L1202.17 297.199L1202.1 296.964L1131.91 63.5862L1198.79 43.4741L1268.97 276.852L1398.63 237.859L1328.44 4.48121L1395.31 -15.6309ZM1003.55 -1.98479L1023.66 64.8894L1093.85 298.267L1094.74 297.999L1103.36 326.659L973.706 365.652L903.519 132.274L836.645 152.386L906.832 385.764L906.903 385.999L906.502 386.12L926.614 452.994L996.801 686.372L997.694 686.103L1006.31 714.766L876.659 753.759L806.472 520.381L739.598 540.493L809.785 773.871L809.856 774.107L809.456 774.227L829.568 841.101L899.755 1074.48L900.647 1074.21L909.266 1102.87L779.612 1141.86L709.425 908.485L642.551 928.598L712.738 1161.98L732.85 1228.85L799.724 1208.74L929.378 1169.74L996.253 1149.63L976.141 1082.76L905.953 849.381L905.061 849.649L896.442 820.989L1026.1 781.996L1096.28 1015.37L1163.16 995.262L1092.97 761.884L1092.9 761.648L1093.3 761.528L1073.19 694.654L1003 461.276L1002.11 461.544L993.488 432.882L1123.14 393.889L1193.33 627.267L1260.2 607.155L1190.02 373.777L1189.95 373.542L1190.35 373.422L1170.24 306.547L1100.05 73.1693L1099.16 73.4373L1090.54 44.7773L1220.19 5.78443L1290.38 239.162L1357.25 219.05L1287.07 -14.3277L1286.99 -14.5654L1287.39 -14.6857L1267.28 -81.5599L1197.1 -314.938L1130.22 -294.826L1200.41 -61.4478L1070.75 -22.455L1000.57 -255.833L933.692 -235.721L1003.88 -2.3428L1003.95 -2.10506L1003.55 -1.98479ZM1596.85 537.167L1526.66 303.789L1593.53 283.677L1663.72 517.055L1683.83 583.929L1683.43 584.05L1683.5 584.285L1753.69 817.663L1686.82 837.775L1616.63 604.397L1486.97 643.39L1495.59 672.05L1496.49 671.782L1566.67 905.16L1586.78 972.035L1519.91 992.147L1390.26 1031.14L1323.38 1051.25L1303.27 984.377L1233.08 750.999L1299.96 730.887L1370.14 964.265L1499.8 925.272L1491.18 896.612L1490.29 896.88L1420.1 663.502L1399.99 596.628L1400.39 596.508L1400.32 596.272L1330.13 362.894L1397 342.782L1467.19 576.16L1596.85 537.167ZM1861.94 816.36L1882.05 883.234L1618.65 962.451L1598.54 895.577L1528.35 662.199L1595.22 642.087L1665.41 875.465L1795.06 836.472L1724.88 603.094L1791.75 582.982L1861.94 816.36Z" fill="#101010" fill-opacity="0.05"/>
</svg>
