<svg width="64" height="62" viewBox="0 0 64 62" fill="none" xmlns="http://www.w3.org/2000/svg">
<rect y="0.612549" width="64" height="60.5848" rx="14" fill="#007D05"/>
<path d="M41.4125 28.2763C40.4492 23.6496 36.1567 20.1763 31 20.1763C26.9058 20.1763 23.35 22.3756 21.5792 25.5942C17.315 26.0233 14 29.4431 14 33.587C14 38.0259 17.8108 41.6334 22.5 41.6334H40.9167C44.8267 41.6334 48 38.6294 48 34.9281C48 31.3876 45.0958 28.5177 41.4125 28.2763ZM40.9167 38.9513H22.5C19.3692 38.9513 16.8333 36.5508 16.8333 33.587C16.8333 30.8378 19.0008 28.5446 21.8767 28.2629L23.3925 28.1154L24.1008 26.8414C25.4467 24.3872 28.0817 22.8584 31 22.8584C34.7117 22.8584 37.9133 25.3528 38.6358 28.7994L39.0608 30.811L41.2283 30.9585C43.4383 31.0926 45.1667 32.8494 45.1667 34.9281C45.1667 37.1408 43.2542 38.9513 40.9167 38.9513ZM25.3333 32.2459H28.9458V36.2691H33.0542V32.2459H36.6667L31 26.8816L25.3333 32.2459Z" fill="white"/>
</svg>
