<svg width="2666" height="625" viewBox="0 0 2666 625" fill="none" xmlns="http://www.w3.org/2000/svg">
<path fill-rule="evenodd" clip-rule="evenodd" d="M159.638 408.033C122.949 349.889 123.07 275.18 160.003 217.146L215.373 272.516C204.585 298.034 204.492 326.999 215.096 352.575L159.638 408.033ZM214.439 463.252C272.746 500.673 348.058 500.795 406.475 463.619L351.105 408.248C325.147 419.223 295.621 419.129 269.724 407.967L214.439 463.252ZM405.834 271.857C416.996 297.754 417.09 327.28 406.115 353.238L461.486 408.608C498.662 350.191 498.54 274.879 461.119 216.572L405.834 271.857ZM405.9 161.771C347.756 125.082 273.047 125.203 215.013 162.136L270.383 217.506C295.901 206.718 324.866 206.625 350.442 217.229L405.9 161.771Z" fill="white"/>
<path fill-rule="evenodd" clip-rule="evenodd" d="M0.525167 242.427C27.4875 123.251 121.525 29.5187 240.869 3V80.4524C163.037 103.581 101.581 164.762 78.0671 242.427H0.525167ZM0 380.689C26.247 500.988 120.737 595.786 240.869 622.48V545.027C162.249 521.664 100.338 459.475 77.3647 380.689H0ZM542.635 380.689C519.662 459.475 457.751 521.664 379.131 545.027V622.48C499.263 595.786 593.753 500.988 620 380.689H542.635ZM619.475 242.427C592.513 123.251 498.475 29.5187 379.131 3V80.4524C456.963 103.581 518.419 164.762 541.933 242.427H619.475Z" fill="white"/>
<path d="M937.5 116.5C937.5 100.5 947.333 92.5 967 92.5C987 92.5 997 100.5 997 116.5V471C997 487 987 495 967 495C947.333 495 937.5 487 937.5 471V116.5ZM785.5 471C785.5 487 775.5 495 755.5 495C735.833 495 726 487 726 471V116.5C726 100.5 735.833 92.5 755.5 92.5C775.5 92.5 785.5 100.5 785.5 116.5V471ZM902.5 285.5C902.5 297.167 898.5 307 890.5 315C882.5 323 872.667 327 861 327C849.667 327 840 323 832 315C824 307 820 297.167 820 285.5C820 273.833 824 264 832 256C840 248 849.667 244 861 244C872.667 244 882.5 248 890.5 256C898.5 264 902.5 273.833 902.5 285.5ZM1131.74 471C1131.74 487 1121.74 495 1101.74 495C1082.07 495 1072.24 487 1072.24 471V116.5C1072.24 100.5 1082.07 92.5 1101.74 92.5C1121.74 92.5 1131.74 100.5 1131.74 116.5V471ZM1345.34 472C1345.34 488 1335.34 496 1315.34 496C1295.67 496 1285.84 488 1285.84 472V145.5H1198.34C1186.34 145.5 1180.01 137 1179.34 120C1179.34 103.333 1185.67 95 1198.34 95H1432.84C1445.51 95 1451.51 103.333 1450.84 120C1450.84 137 1444.84 145.5 1432.84 145.5H1345.34V472ZM1676.93 492.5C1664.6 492.5 1656.27 489.333 1651.93 483C1647.6 476.667 1645.43 469.667 1645.43 462V116.5C1645.43 100.5 1655.1 92.5 1674.43 92.5C1694.43 92.5 1704.43 100.5 1704.43 116.5V442H1871.43C1883.43 442 1889.43 450.167 1889.43 466.5C1890.1 483.833 1884.1 492.5 1871.43 492.5H1676.93ZM1996.97 471C1996.97 487 1986.97 495 1966.97 495C1947.31 495 1937.47 487 1937.47 471V116.5C1937.47 100.5 1947.31 92.5 1966.97 92.5C1986.97 92.5 1996.97 100.5 1996.97 116.5V471ZM2266.57 263.5C2275.24 263.5 2284.24 265.333 2293.57 269C2302.91 272.667 2311.91 277.5 2320.57 283.5H2320.07C2328.74 289.5 2335.41 297.667 2340.07 308C2344.74 318.333 2347.07 330.167 2347.07 343.5V412C2347.07 439 2338.07 459.167 2320.07 472.5C2311.41 478.833 2302.41 483.833 2293.07 487.5C2284.07 490.833 2275.24 492.5 2266.57 492.5H2157.57C2148.91 492.5 2139.91 490.833 2130.57 487.5C2121.57 483.833 2112.74 478.833 2104.07 472.5C2086.07 459.167 2077.07 439 2077.07 412V379C2077.07 363.333 2086.91 355.5 2106.57 355.5C2126.57 355.5 2136.57 363.333 2136.57 379V408C2136.57 416.667 2139.07 424.5 2144.07 431.5C2149.07 438.5 2157.74 442 2170.07 442H2254.07C2266.41 442 2275.07 438.5 2280.07 431.5C2285.07 424.5 2287.57 416.667 2287.57 408V347.5C2287.57 339.167 2285.07 331.5 2280.07 324.5C2275.07 317.167 2266.41 313.5 2254.07 313.5H2157.57C2140.24 313.5 2122.41 307.167 2104.07 294.5C2086.07 280.5 2077.07 260.333 2077.07 234V174.5C2077.07 161.167 2079.41 149.5 2084.07 139.5C2088.74 129.167 2095.41 120.833 2104.07 114.5H2103.57C2112.24 108.833 2121.24 104.167 2130.57 100.5C2139.91 96.8333 2148.91 95 2157.57 95H2266.57C2275.24 95 2284.24 96.8333 2293.57 100.5C2302.91 104.167 2311.91 108.833 2320.57 114.5H2320.07C2328.74 120.833 2335.41 129.167 2340.07 139.5C2344.74 149.5 2347.07 161.167 2347.07 174.5V204C2347.07 219.667 2337.07 227.5 2317.07 227.5C2297.41 227.5 2287.57 219.667 2287.57 204V179C2287.57 170.667 2285.07 163 2280.07 156C2275.07 149 2266.41 145.5 2254.07 145.5H2170.07C2157.74 145.5 2149.07 149 2144.07 156C2139.07 163 2136.57 170.667 2136.57 179V230C2136.57 238.667 2139.07 246.5 2144.07 253.5C2149.07 260.167 2157.74 263.5 2170.07 263.5H2266.57ZM2559.21 472C2559.21 488 2549.21 496 2529.21 496C2509.54 496 2499.71 488 2499.71 472V145.5H2412.21C2400.21 145.5 2393.87 137 2393.21 120C2393.21 103.333 2399.54 95 2412.21 95H2646.71C2659.37 95 2665.37 103.333 2664.71 120C2664.71 137 2658.71 145.5 2646.71 145.5H2559.21V472Z" fill="white"/>
</svg>
