<svg width="2790" height="691" viewBox="0 0 2790 691" fill="none" xmlns="http://www.w3.org/2000/svg">
<path fill-rule="evenodd" clip-rule="evenodd" d="M176.742 451.121C136.122 386.837 136.256 304.239 177.146 240.076L232.388 295.241C217.885 327.117 217.778 363.927 232.064 395.876L176.742 451.121ZM237.415 512.171C301.969 553.544 385.35 553.679 450.026 512.577L394.784 457.412C362.387 472.11 324.9 472.001 292.578 457.085L237.415 512.171ZM455.362 294.528C470.299 326.805 470.408 364.24 455.689 396.592L510.931 451.757C552.09 387.171 551.955 303.906 510.525 239.442L455.362 294.528ZM449.389 178.854C385.015 138.29 302.302 138.424 238.05 179.257L293.292 234.422C325.212 219.94 362.073 219.832 394.067 234.099L449.389 178.854Z" fill="black"/>
<path fill-rule="evenodd" clip-rule="evenodd" d="M0.581446 268.028C30.4326 136.266 134.546 32.6359 266.677 3.31677V80.6832C176.039 106.71 104.563 177.799 78.056 268.028H0.581446ZM0 420.89C29.0592 553.893 133.674 658.701 266.677 688.213V610.847C175.166 584.57 103.188 512.358 77.3024 420.89H0ZM609.126 420.89C583.241 512.358 511.263 584.57 419.752 610.847V688.213C552.755 658.701 657.369 553.893 686.428 420.89H609.126ZM685.847 268.028C655.996 136.266 551.883 32.6359 419.752 3.31679V80.6832C510.39 106.71 581.865 177.799 608.373 268.028H685.847Z" fill="black"/>
<path d="M1011 116.5C1011 100.5 1020.83 92.5 1040.5 92.5C1060.5 92.5 1070.5 100.5 1070.5 116.5V471C1070.5 487 1060.5 495 1040.5 495C1020.83 495 1011 487 1011 471V116.5ZM859 471C859 487 849 495 829 495C809.333 495 799.5 487 799.5 471V116.5C799.5 100.5 809.333 92.5 829 92.5C849 92.5 859 100.5 859 116.5V471ZM976 285.5C976 297.167 972 307 964 315C956 323 946.167 327 934.5 327C923.167 327 913.5 323 905.5 315C897.5 307 893.5 297.167 893.5 285.5C893.5 273.833 897.5 264 905.5 256C913.5 248 923.167 244 934.5 244C946.167 244 956 248 964 256C972 264 976 273.833 976 285.5ZM1205.24 471C1205.24 487 1195.24 495 1175.24 495C1155.57 495 1145.74 487 1145.74 471V116.5C1145.74 100.5 1155.57 92.5 1175.24 92.5C1195.24 92.5 1205.24 100.5 1205.24 116.5V471ZM1418.84 472C1418.84 488 1408.84 496 1388.84 496C1369.17 496 1359.34 488 1359.34 472V145.5H1271.84C1259.84 145.5 1253.51 137 1252.84 120C1252.84 103.333 1259.17 95 1271.84 95H1506.34C1519.01 95 1525.01 103.333 1524.34 120C1524.34 137 1518.34 145.5 1506.34 145.5H1418.84V472ZM1750.43 492.5C1738.1 492.5 1729.77 489.333 1725.43 483C1721.1 476.667 1718.93 469.667 1718.93 462V116.5C1718.93 100.5 1728.6 92.5 1747.93 92.5C1767.93 92.5 1777.93 100.5 1777.93 116.5V442H1944.93C1956.93 442 1962.93 450.167 1962.93 466.5C1963.6 483.833 1957.6 492.5 1944.93 492.5H1750.43ZM2070.47 471C2070.47 487 2060.47 495 2040.47 495C2020.81 495 2010.97 487 2010.97 471V116.5C2010.97 100.5 2020.81 92.5 2040.47 92.5C2060.47 92.5 2070.47 100.5 2070.47 116.5V471ZM2340.07 263.5C2348.74 263.5 2357.74 265.333 2367.07 269C2376.41 272.667 2385.41 277.5 2394.07 283.5H2393.57C2402.24 289.5 2408.91 297.667 2413.57 308C2418.24 318.333 2420.57 330.167 2420.57 343.5V412C2420.57 439 2411.57 459.167 2393.57 472.5C2384.91 478.833 2375.91 483.833 2366.57 487.5C2357.57 490.833 2348.74 492.5 2340.07 492.5H2231.07C2222.41 492.5 2213.41 490.833 2204.07 487.5C2195.07 483.833 2186.24 478.833 2177.57 472.5C2159.57 459.167 2150.57 439 2150.57 412V379C2150.57 363.333 2160.41 355.5 2180.07 355.5C2200.07 355.5 2210.07 363.333 2210.07 379V408C2210.07 416.667 2212.57 424.5 2217.57 431.5C2222.57 438.5 2231.24 442 2243.57 442H2327.57C2339.91 442 2348.57 438.5 2353.57 431.5C2358.57 424.5 2361.07 416.667 2361.07 408V347.5C2361.07 339.167 2358.57 331.5 2353.57 324.5C2348.57 317.167 2339.91 313.5 2327.57 313.5H2231.07C2213.74 313.5 2195.91 307.167 2177.57 294.5C2159.57 280.5 2150.57 260.333 2150.57 234V174.5C2150.57 161.167 2152.91 149.5 2157.57 139.5C2162.24 129.167 2168.91 120.833 2177.57 114.5H2177.07C2185.74 108.833 2194.74 104.167 2204.07 100.5C2213.41 96.8333 2222.41 95 2231.07 95H2340.07C2348.74 95 2357.74 96.8333 2367.07 100.5C2376.41 104.167 2385.41 108.833 2394.07 114.5H2393.57C2402.24 120.833 2408.91 129.167 2413.57 139.5C2418.24 149.5 2420.57 161.167 2420.57 174.5V204C2420.57 219.667 2410.57 227.5 2390.57 227.5C2370.91 227.5 2361.07 219.667 2361.07 204V179C2361.07 170.667 2358.57 163 2353.57 156C2348.57 149 2339.91 145.5 2327.57 145.5H2243.57C2231.24 145.5 2222.57 149 2217.57 156C2212.57 163 2210.07 170.667 2210.07 179V230C2210.07 238.667 2212.57 246.5 2217.57 253.5C2222.57 260.167 2231.24 263.5 2243.57 263.5H2340.07ZM2632.71 472C2632.71 488 2622.71 496 2602.71 496C2583.04 496 2573.21 488 2573.21 472V145.5H2485.71C2473.71 145.5 2467.37 137 2466.71 120C2466.71 103.333 2473.04 95 2485.71 95H2720.21C2732.87 95 2738.87 103.333 2738.21 120C2738.21 137 2732.21 145.5 2720.21 145.5H2632.71V472Z" fill="black"/>
</svg>
