<svg width="211" height="50" viewBox="0 0 211 50" fill="none" xmlns="http://www.w3.org/2000/svg">
<path fill-rule="evenodd" clip-rule="evenodd" d="M12.874 32.6639C9.91522 27.9749 9.92498 21.9499 12.9034 17.2698L17.3688 21.7351C16.4988 23.793 16.4913 26.1289 17.3464 28.1915L12.874 32.6639ZM17.2934 37.117C21.9956 40.1349 28.0692 40.1447 32.7802 37.1466L28.3149 32.6812C26.2215 33.5663 23.8404 33.5587 21.7519 32.6586L17.2934 37.117ZM32.7285 21.682C33.6287 23.7704 33.6363 26.1516 32.7512 28.2449L37.2166 32.7103C40.2146 27.9992 40.2048 21.9257 37.187 17.2235L32.7285 21.682ZM32.7338 12.8041C28.0448 9.84527 22.0199 9.85503 17.3397 12.8335L21.8051 17.2988C23.863 16.4288 26.1988 16.4213 28.2614 17.2765L32.7338 12.8041Z" fill="#2A2A2A"/>
<path fill-rule="evenodd" clip-rule="evenodd" d="M0.0423522 19.3086C2.21673 9.69766 9.8004 2.1386 19.4249 0V6.24616C13.1481 8.11137 8.19202 13.0453 6.29573 19.3086H0.0423522ZM0 30.4588C2.11669 40.1603 9.73685 47.8053 19.4249 49.9581V43.7119C13.0846 41.8277 8.09177 36.8125 6.23909 30.4588H0ZM43.7609 30.4588C41.9082 36.8125 36.9154 41.8277 30.5751 43.7119V49.9581C40.2631 47.8053 47.8833 40.1603 50 30.4588H43.7609ZM49.9577 19.3086C47.7833 9.69766 40.1996 2.1386 30.5751 0V6.24616C36.8519 8.11137 41.808 13.0453 43.7043 19.3086H49.9577Z" fill="#2A2A2A"/>
<path d="M86.108 10.964C86.108 9.812 86.816 9.236 88.232 9.236C89.672 9.236 90.392 9.812 90.392 10.964V36.488C90.392 37.64 89.672 38.216 88.232 38.216C86.816 38.216 86.108 37.64 86.108 36.488V10.964ZM75.164 36.488C75.164 37.64 74.444 38.216 73.004 38.216C71.588 38.216 70.88 37.64 70.88 36.488V10.964C70.88 9.812 71.588 9.236 73.004 9.236C74.444 9.236 75.164 9.812 75.164 10.964V36.488ZM83.588 23.132C83.588 23.972 83.3 24.68 82.724 25.256C82.148 25.832 81.44 26.12 80.6 26.12C79.784 26.12 79.088 25.832 78.512 25.256C77.936 24.68 77.648 23.972 77.648 23.132C77.648 22.292 77.936 21.584 78.512 21.008C79.088 20.432 79.784 20.144 80.6 20.144C81.44 20.144 82.148 20.432 82.724 21.008C83.3 21.584 83.588 22.292 83.588 23.132ZM100.093 36.488C100.093 37.64 99.3732 38.216 97.9332 38.216C96.5172 38.216 95.8092 37.64 95.8092 36.488V10.964C95.8092 9.812 96.5172 9.236 97.9332 9.236C99.3732 9.236 100.093 9.812 100.093 10.964V36.488ZM115.472 36.56C115.472 37.712 114.752 38.288 113.312 38.288C111.896 38.288 111.188 37.712 111.188 36.56V13.052H104.888C104.024 13.052 103.568 12.44 103.52 11.216C103.52 10.016 103.976 9.416 104.888 9.416H121.772C122.684 9.416 123.116 10.016 123.068 11.216C123.068 12.44 122.636 13.052 121.772 13.052H115.472V36.56ZM139.347 38.036C138.459 38.036 137.859 37.808 137.547 37.352C137.235 36.896 137.079 36.392 137.079 35.84V10.964C137.079 9.812 137.775 9.236 139.167 9.236C140.607 9.236 141.327 9.812 141.327 10.964V34.4H153.351C154.215 34.4 154.647 34.988 154.647 36.164C154.695 37.412 154.263 38.036 153.351 38.036H139.347ZM162.39 36.488C162.39 37.64 161.67 38.216 160.23 38.216C158.814 38.216 158.106 37.64 158.106 36.488V10.964C158.106 9.812 158.814 9.236 160.23 9.236C161.67 9.236 162.39 9.812 162.39 10.964V36.488ZM181.801 21.548C182.425 21.548 183.073 21.68 183.745 21.944C184.417 22.208 185.065 22.556 185.689 22.988H185.653C186.277 23.42 186.757 24.008 187.093 24.752C187.429 25.496 187.597 26.348 187.597 27.308V32.24C187.597 34.184 186.949 35.636 185.653 36.596C185.029 37.052 184.381 37.412 183.709 37.676C183.061 37.916 182.425 38.036 181.801 38.036H173.953C173.329 38.036 172.681 37.916 172.009 37.676C171.361 37.412 170.725 37.052 170.101 36.596C168.805 35.636 168.157 34.184 168.157 32.24V29.864C168.157 28.736 168.865 28.172 170.281 28.172C171.721 28.172 172.441 28.736 172.441 29.864V31.952C172.441 32.576 172.621 33.14 172.981 33.644C173.341 34.148 173.965 34.4 174.853 34.4H180.901C181.789 34.4 182.413 34.148 182.773 33.644C183.133 33.14 183.313 32.576 183.313 31.952V27.596C183.313 26.996 183.133 26.444 182.773 25.94C182.413 25.412 181.789 25.148 180.901 25.148H173.953C172.705 25.148 171.421 24.692 170.101 23.78C168.805 22.772 168.157 21.32 168.157 19.424V15.14C168.157 14.18 168.325 13.34 168.661 12.62C168.997 11.876 169.477 11.276 170.101 10.82H170.065C170.689 10.412 171.337 10.076 172.009 9.812C172.681 9.548 173.329 9.416 173.953 9.416H181.801C182.425 9.416 183.073 9.548 183.745 9.812C184.417 10.076 185.065 10.412 185.689 10.82H185.653C186.277 11.276 186.757 11.876 187.093 12.62C187.429 13.34 187.597 14.18 187.597 15.14V17.264C187.597 18.392 186.877 18.956 185.437 18.956C184.021 18.956 183.313 18.392 183.313 17.264V15.464C183.313 14.864 183.133 14.312 182.773 13.808C182.413 13.304 181.789 13.052 180.901 13.052H174.853C173.965 13.052 173.341 13.304 172.981 13.808C172.621 14.312 172.441 14.864 172.441 15.464V19.136C172.441 19.76 172.621 20.324 172.981 20.828C173.341 21.308 173.965 21.548 174.853 21.548H181.801ZM202.871 36.56C202.871 37.712 202.151 38.288 200.711 38.288C199.295 38.288 198.587 37.712 198.587 36.56V13.052H192.287C191.423 13.052 190.967 12.44 190.919 11.216C190.919 10.016 191.375 9.416 192.287 9.416H209.171C210.083 9.416 210.515 10.016 210.467 11.216C210.467 12.44 210.035 13.052 209.171 13.052H202.871V36.56Z" fill="#2A2A2A"/>
</svg>
