<svg width="2364" height="789" viewBox="0 0 2364 789" fill="none" xmlns="http://www.w3.org/2000/svg">
<circle cx="394.5" cy="394.5" r="394.5" fill="black" fill-opacity="0.1"/>
<circle cx="395" cy="395" r="306" fill="black" fill-opacity="0.2"/>
<circle cx="395" cy="395" r="225" fill="black"/>
<path d="M1221 221V570H1151V421.5H1001.5V570H931.5V221H1001.5V364.5H1151V221H1221ZM1330.4 260C1318.07 260 1307.73 256.167 1299.4 248.5C1291.4 240.5 1287.4 230.667 1287.4 219C1287.4 207.333 1291.4 197.667 1299.4 190C1307.73 182 1318.07 178 1330.4 178C1342.73 178 1352.9 182 1360.9 190C1369.23 197.667 1373.4 207.333 1373.4 219C1373.4 230.667 1369.23 240.5 1360.9 248.5C1352.9 256.167 1342.73 260 1330.4 260ZM1364.9 293V570H1294.9V293H1364.9ZM1520.56 350.5V484.5C1520.56 493.833 1522.73 500.667 1527.06 505C1531.73 509 1539.39 511 1550.06 511H1582.56V570H1538.56C1479.56 570 1450.06 541.333 1450.06 484V350.5H1417.06V293H1450.06V224.5H1520.56V293H1582.56V350.5H1520.56ZM1707.91 200V570H1637.91V200H1707.91ZM1817.57 260C1805.23 260 1794.9 256.167 1786.57 248.5C1778.57 240.5 1774.57 230.667 1774.57 219C1774.57 207.333 1778.57 197.667 1786.57 190C1794.9 182 1805.23 178 1817.57 178C1829.9 178 1840.07 182 1848.07 190C1856.4 197.667 1860.57 207.333 1860.57 219C1860.57 230.667 1856.4 240.5 1848.07 248.5C1840.07 256.167 1829.9 260 1817.57 260ZM1852.07 293V570H1782.07V293H1852.07ZM2032.23 574.5C2009.56 574.5 1989.23 570.5 1971.23 562.5C1953.23 554.167 1938.89 543 1928.23 529C1917.89 515 1912.23 499.5 1911.23 482.5H1981.73C1983.06 493.167 1988.23 502 1997.23 509C2006.56 516 2018.06 519.5 2031.73 519.5C2045.06 519.5 2055.39 516.833 2062.73 511.5C2070.39 506.167 2074.23 499.333 2074.23 491C2074.23 482 2069.56 475.333 2060.23 471C2051.23 466.333 2036.73 461.333 2016.73 456C1996.06 451 1979.06 445.833 1965.73 440.5C1952.73 435.167 1941.39 427 1931.73 416C1922.39 405 1917.73 390.167 1917.73 371.5C1917.73 356.167 1922.06 342.167 1930.73 329.5C1939.73 316.833 1952.39 306.833 1968.73 299.5C1985.39 292.167 2004.89 288.5 2027.23 288.5C2060.23 288.5 2086.56 296.833 2106.23 313.5C2125.89 329.833 2136.73 352 2138.73 380H2071.73C2070.73 369 2066.06 360.333 2057.73 354C2049.73 347.333 2038.89 344 2025.23 344C2012.56 344 2002.73 346.333 1995.73 351C1989.06 355.667 1985.73 362.167 1985.73 370.5C1985.73 379.833 1990.39 387 1999.73 392C2009.06 396.667 2023.56 401.5 2043.23 406.5C2063.23 411.5 2079.73 416.667 2092.73 422C2105.73 427.333 2116.89 435.667 2126.23 447C2135.89 458 2140.89 472.667 2141.23 491C2141.23 507 2136.73 521.333 2127.73 534C2119.06 546.667 2106.39 556.667 2089.73 564C2073.39 571 2054.23 574.5 2032.23 574.5ZM2285.19 350.5V484.5C2285.19 493.833 2287.35 500.667 2291.69 505C2296.35 509 2304.02 511 2314.69 511H2347.19V570H2303.19C2244.19 570 2214.69 541.333 2214.69 484V350.5H2181.69V293H2214.69V224.5H2285.19V293H2347.19V350.5H2285.19Z" fill="black"/>
</svg>
