<svg width="64" height="62" viewBox="0 0 64 62" fill="none" xmlns="http://www.w3.org/2000/svg">
<rect y="0.612549" width="64" height="60.5849" rx="14" fill="#282828"/>
<path d="M31.2733 37.2033C27.0333 37.014 23.66 33.7071 23.66 29.6428C23.66 25.465 27.2467 22.0697 31.66 22.0697C35.9533 22.0697 39.4467 25.2631 39.6467 29.2768L36.8467 28.4816C36.3 26.2476 34.18 24.5941 31.66 24.5941C28.7133 24.5941 26.3267 26.8534 26.3267 29.6428C26.3267 32.0284 28.0733 34.0352 30.4333 34.5527L31.2733 37.2033ZM44.9933 29.6428C44.9933 30.0215 44.98 30.4001 44.94 30.7788L42.3133 30.0341C42.3267 29.9079 42.3267 29.7691 42.3267 29.6428C42.3267 24.064 37.5533 19.5454 31.66 19.5454C25.7667 19.5454 20.9933 24.064 20.9933 29.6428C20.9933 35.2217 25.7667 39.7403 31.66 39.7403C31.7933 39.7403 31.94 39.7403 32.0733 39.7277L32.86 42.2142C32.46 42.2521 32.06 42.2647 31.66 42.2647C24.3 42.2647 18.3267 36.6101 18.3267 29.6428C18.3267 22.6756 24.3 17.021 31.66 17.021C39.02 17.021 44.9933 22.6756 44.9933 29.6428ZM39.9667 35.0197L44.9933 33.4294L31.66 29.6428L35.66 42.2647L37.34 37.5062L43.0333 42.8958L45.6733 40.3966L39.9667 35.0197Z" fill="white"/>
</svg>
