<svg width="84" height="84" viewBox="0 0 84 84" fill="none" xmlns="http://www.w3.org/2000/svg">
<path fill-rule="evenodd" clip-rule="evenodd" d="M21.6284 54.8755C16.6576 46.9979 16.674 36.876 21.6778 29.0134L29.1796 36.5151C27.718 39.9724 27.7054 43.8967 29.142 47.3618L21.6284 54.8755ZM29.053 62.3568C36.9527 67.4267 47.1562 67.4432 55.0708 62.4065L47.5691 54.9046C44.0522 56.3915 40.0519 56.3788 36.5433 54.8665L29.053 62.3568ZM54.984 36.4258C56.4962 39.9345 56.509 43.9347 55.022 47.4516L62.5239 54.9534C67.5606 47.0388 67.5441 36.8353 62.4742 28.9356L54.984 36.4258ZM54.9929 21.511C47.1153 16.5402 36.9935 16.5566 29.1308 21.5604L36.6325 29.0621C40.0898 27.6005 44.0141 27.5879 47.4792 29.0246L54.9929 21.511Z" fill="#2A2A2A"/>
<path fill-rule="evenodd" clip-rule="evenodd" d="M0.0711517 32.4385C3.72411 16.2921 16.4647 3.59286 32.6339 0V10.4936C22.0889 13.6271 13.7626 21.9161 10.5768 32.4385H0.0711517ZM0 51.1708C3.55605 67.4693 16.3579 80.3129 32.6339 83.9296V73.4359C21.9821 70.2706 13.5942 61.845 10.4817 51.1708H0ZM73.5183 51.1708C70.4058 61.845 62.0179 70.2706 51.3661 73.4359V83.9296C67.6421 80.3129 80.444 67.4693 84 51.1708H73.5183ZM83.9289 32.4385C80.276 16.2921 67.5353 3.59286 51.3661 0V10.4936C61.9111 13.6271 70.2374 21.9161 73.4232 32.4385H83.9289Z" fill="#2A2A2A"/>
</svg>
