<svg width="620" height="620" viewBox="0 0 620 620" fill="none" xmlns="http://www.w3.org/2000/svg">
<path fill-rule="evenodd" clip-rule="evenodd" d="M159.638 405.033C122.949 346.889 123.07 272.18 160.003 214.146L215.373 269.516C204.585 295.034 204.492 323.999 215.096 349.575L159.638 405.033ZM214.439 460.252C272.746 497.673 348.058 497.795 406.475 460.619L351.105 405.248C325.147 416.223 295.621 416.129 269.724 404.967L214.439 460.252ZM405.834 268.857C416.996 294.754 417.09 324.28 406.115 350.238L461.486 405.608C498.662 347.191 498.54 271.879 461.119 213.572L405.834 268.857ZM405.9 158.771C347.756 122.082 273.047 122.203 215.013 159.136L270.383 214.506C295.901 203.718 324.866 203.625 350.442 214.229L405.9 158.771Z" fill="white"/>
<path fill-rule="evenodd" clip-rule="evenodd" d="M0.525167 239.427C27.4875 120.251 121.525 26.5187 240.869 0V77.4524C163.037 100.581 101.581 161.762 78.0671 239.427H0.525167ZM0 377.689C26.247 497.988 120.737 592.786 240.869 619.48V542.027C162.249 518.664 100.338 456.475 77.3647 377.689H0ZM542.635 377.689C519.662 456.475 457.751 518.664 379.131 542.027V619.48C499.263 592.786 593.753 497.988 620 377.689H542.635ZM619.475 239.427C592.513 120.251 498.475 26.5187 379.131 0V77.4524C456.963 100.581 518.419 161.762 541.933 239.427H619.475Z" fill="white"/>
</svg>
