<svg width="64" height="62" viewBox="0 0 64 62" fill="none" xmlns="http://www.w3.org/2000/svg">
<rect y="0.612549" width="64" height="60.5849" rx="14" fill="#0066FF"/>
<path d="M28.125 32.9035C24.7125 32.9035 17.9167 34.5187 17.9167 37.7353V40.1512H38.3334V37.7353C38.3334 34.5187 31.5375 32.9035 28.125 32.9035ZM21.3292 37.3902C22.5542 36.5895 25.5146 35.6645 28.125 35.6645C30.7354 35.6645 33.6959 36.5895 34.9209 37.3902H21.3292ZM28.125 30.4876C30.9396 30.4876 33.2292 28.3202 33.2292 25.6558C33.2292 22.9914 30.9396 20.824 28.125 20.824C25.3104 20.824 23.0209 22.9914 23.0209 25.6558C23.0209 28.3202 25.3104 30.4876 28.125 30.4876ZM28.125 23.585C29.3354 23.585 30.3125 24.51 30.3125 25.6558C30.3125 26.8016 29.3354 27.7266 28.125 27.7266C26.9146 27.7266 25.9375 26.8016 25.9375 25.6558C25.9375 24.51 26.9146 23.585 28.125 23.585ZM38.3917 32.9863C40.0834 34.146 41.25 35.6921 41.25 37.7353V40.1512H47.0834V37.7353C47.0834 34.9467 41.9792 33.3591 38.3917 32.9863ZM36.875 30.4876C39.6896 30.4876 41.9792 28.3202 41.9792 25.6558C41.9792 22.9914 39.6896 20.824 36.875 20.824C36.0875 20.824 35.3584 21.0034 34.6875 21.3072C35.6063 22.5358 36.1459 24.0406 36.1459 25.6558C36.1459 27.271 35.6063 28.7757 34.6875 30.0044C35.3584 30.3081 36.0875 30.4876 36.875 30.4876Z" fill="white"/>
</svg>
